<svg id="Layer_1" data-name="Layer 1" xmlns="http://www.w3.org/2000/svg" viewBox="0 0 311.03 63.59"><defs><style>.cls-1{fill:#65686c;}.cls-2{fill:#5984c4;}</style></defs><title>logo</title><path class="cls-1" d="M77.68,21.74A21.1,21.1,0,0,0,66.81,19a21.39,21.39,0,0,0-10.92,2.74,18.87,18.87,0,0,0-7.31,7.73A25.28,25.28,0,0,0,46,41.3a25.54,25.54,0,0,0,2.56,11.78,18.43,18.43,0,0,0,7.26,7.77,21.47,21.47,0,0,0,11,2.74,21.18,21.18,0,0,0,11-2.74A18.52,18.52,0,0,0,85,53.08,25.54,25.54,0,0,0,87.55,41.3,25.28,25.28,0,0,0,85,29.47,19,19,0,0,0,77.68,21.74ZM76.54,53.22a11.81,11.81,0,0,1-9.73,4.34q-6.3,0-9.82-4.29c-2.35-2.86-3.52-6.86-3.52-12s1.2-9,3.61-11.93A12,12,0,0,1,66.81,25a11.83,11.83,0,0,1,9.73,4.33q3.52,4.35,3.52,11.93T76.54,53.22Z"/><path class="cls-1" d="M123.64,21.74A21.12,21.12,0,0,0,112.77,19a21.36,21.36,0,0,0-10.92,2.74,18.87,18.87,0,0,0-7.31,7.73,25.15,25.15,0,0,0-2.6,11.83,25.66,25.66,0,0,0,2.55,11.78,18.51,18.51,0,0,0,7.27,7.77,23.39,23.39,0,0,0,22,0A18.59,18.59,0,0,0,131,53.08a25.67,25.67,0,0,0,2.56-11.78,25.16,25.16,0,0,0-2.61-11.83A18.88,18.88,0,0,0,123.64,21.74ZM122.5,53.22a11.83,11.83,0,0,1-9.73,4.34q-6.31,0-9.82-4.29c-2.35-2.86-3.52-6.86-3.52-12s1.2-9,3.61-11.93A12,12,0,0,1,112.77,25a11.85,11.85,0,0,1,9.73,4.33Q126,33.72,126,41.3T122.5,53.22Z"/><path class="cls-1" d="M193.49,20.56A21.42,21.42,0,0,0,185,19a21,21,0,0,0-8.77,1.74A22.21,22.21,0,0,0,170.9,24a11.56,11.56,0,0,0-5.05-3.59A22.18,22.18,0,0,0,157.63,19,26.39,26.39,0,0,0,150,20.15a25.94,25.94,0,0,0-6.26,2.69,7.89,7.89,0,0,0-2.69,2.47,5.85,5.85,0,0,0-.78,3.1V59.57a3,3,0,0,0,1,2.51,4.71,4.71,0,0,0,2.93.78,8.41,8.41,0,0,0,2-.23,11.63,11.63,0,0,0,1.37-.41V28.05a20.58,20.58,0,0,1,4.48-2.1,16.63,16.63,0,0,1,5.48-.91,10.68,10.68,0,0,1,6.9,2.1q2.59,2.1,2.6,6.57V59.57a3,3,0,0,0,1,2.51,4.67,4.67,0,0,0,3,.78,8.54,8.54,0,0,0,2-.23,11.31,11.31,0,0,0,1.42-.41v-29a14.86,14.86,0,0,0-.46-3.84l0-.1a16.76,16.76,0,0,1,4.37-2.87A15,15,0,0,1,184.4,25a10.46,10.46,0,0,1,6.85,2.1q2.56,2.1,2.56,6.57V59.57a3,3,0,0,0,1,2.51,4.67,4.67,0,0,0,3,.78,8.54,8.54,0,0,0,2-.23,11.31,11.31,0,0,0,1.42-.41V33.35a14.84,14.84,0,0,0-2-8A12.08,12.08,0,0,0,193.49,20.56Z"/><path class="cls-1" d="M247,6.94H216.65a6.19,6.19,0,0,0-4.52,1.65,6,6,0,0,0-1.69,4.47V57.65A5,5,0,0,0,212,61.72,7.54,7.54,0,0,0,216.74,63a20.6,20.6,0,0,0,3.06-.23c1-.15,1.75-.29,2.24-.41V40.57H241a3.88,3.88,0,0,0,3.1-1.28,5.46,5.46,0,0,0,1.1-3.66,7.83,7.83,0,0,0-.41-2.55,9.78,9.78,0,0,0-.87-1.92H222V16.35h22.11a3.88,3.88,0,0,0,3.11-1.27,5.5,5.5,0,0,0,1.09-3.66,8,8,0,0,0-.41-2.6A7.27,7.27,0,0,0,247,6.94Z"/><path class="cls-1" d="M257.4,18.82a19.43,19.43,0,0,0-3.06.23,12.14,12.14,0,0,0-2.15.5V57.74c0,1.95.52,3.31,1.56,4.07A7.82,7.82,0,0,0,258.41,63a18.6,18.6,0,0,0,3-.23,11.62,11.62,0,0,0,2.1-.5V24.12c0-2-.48-3.39-1.46-4.16A7.6,7.6,0,0,0,257.4,18.82Z"/><path class="cls-1" d="M257.86,0a6.47,6.47,0,0,0-4.71,1.83,6,6,0,0,0-1.87,4.47,6.06,6.06,0,0,0,1.87,4.44,6.42,6.42,0,0,0,4.71,1.87,6.26,6.26,0,0,0,6.49-6.31,6.16,6.16,0,0,0-1.79-4.47A6.24,6.24,0,0,0,257.86,0Z"/><path class="cls-1" d="M305.87,22q-5.16-4.11-14.39-4.11a35.31,35.31,0,0,0-9.64,1.23,25.17,25.17,0,0,0-7.08,3.06A9,9,0,0,0,272,24.81a6.5,6.5,0,0,0-.91,3.6V57.74c0,1.95.5,3.31,1.5,4.07A7.67,7.67,0,0,0,277.23,63a18.6,18.6,0,0,0,3-.23,11.62,11.62,0,0,0,2.1-.5V29.15a22.29,22.29,0,0,1,4-1.6,17.18,17.18,0,0,1,5.07-.69,9.34,9.34,0,0,1,6.12,1.88C299,30,299.79,32,299.79,34.63V57.74c0,1.95.51,3.31,1.51,4.07A7.83,7.83,0,0,0,306,63a19,19,0,0,0,3-.23,9.47,9.47,0,0,0,2-.5v-28Q311,26.13,305.87,22Z"/><path class="cls-2" d="M41.28,62.34a3.59,3.59,0,0,1-5.08.37L21.36,49.89a7.17,7.17,0,0,1-.58-10.3A6.85,6.85,0,0,1,26,37.37a11.79,11.79,0,0,0,11.78-12,12,12,0,0,0-12-11.58H3.61A3.61,3.61,0,0,1,0,10.19H0A3.61,3.61,0,0,1,3.61,6.58h22c10.59,0,19.51,8.66,19.38,19.24A19,19,0,0,1,26.25,44.58L40.91,57.25a3.6,3.6,0,0,1,.37,5.09Z"/><path class="cls-2" d="M3.61,62.86h0A3.61,3.61,0,0,1,0,59.25V37.32A16.59,16.59,0,0,1,16.59,20.73h9.32a3.6,3.6,0,0,1,3.61,3.61h0a3.6,3.6,0,0,1-3.61,3.6H16.59a9.37,9.37,0,0,0-9.37,9.38V59.25A3.61,3.61,0,0,1,3.61,62.86Z"/></svg>