<svg id="Layer_1" data-name="Layer 1" xmlns="http://www.w3.org/2000/svg" viewBox="0 0 416.07 110.3"><defs><style>.cls-1{fill:#383c3b;}.cls-2{fill:#f1ba43;}</style></defs><path class="cls-1" d="M129.92,73.06q-2.55-3.3-5.29-6.76l-2.07-2.61a21.39,21.39,0,0,0,3.25-1.14,16,16,0,0,0,7.31-6.21,17.6,17.6,0,0,0,2.47-9.42q0-8.4-5.67-13.06T112.84,29.2q-3.66,0-7.54.37a33,33,0,0,0-6.53,1.18A5.41,5.41,0,0,0,96.53,32a3,3,0,0,0-.78,2.24v48.6a3.12,3.12,0,0,0,1,2.56,4.66,4.66,0,0,0,3,.82,8.42,8.42,0,0,0,2-.22c.61-.16,1.1-.29,1.47-.42V64.74h10.41c.63,0,1.25,0,1.85,0l13.32,18.68a11.56,11.56,0,0,0,2.1,2.24,4,4,0,0,0,2.56.78A4.44,4.44,0,0,0,137.6,83c-.73-1-1.77-2.33-3.11-4.07S131.63,75.25,129.92,73.06ZM103.15,58.53V36.24a43.68,43.68,0,0,1,4.44-.6c1.67-.15,3.33-.23,5-.23q7.5,0,11.52,2.93t4,8.58q0,5.76-3.84,8.69t-10.6,2.92Z"/><path class="cls-1" d="M172.14,45.1a21.06,21.06,0,0,0-10.88-2.74,21.29,21.29,0,0,0-10.92,2.74,18.76,18.76,0,0,0-7.3,7.72,25.16,25.16,0,0,0-2.61,11.83A25.61,25.61,0,0,0,143,76.44a18.4,18.4,0,0,0,7.26,7.76,21.47,21.47,0,0,0,11,2.74,21.22,21.22,0,0,0,11-2.74,18.56,18.56,0,0,0,7.22-7.76A25.74,25.74,0,0,0,182,64.65a25.15,25.15,0,0,0-2.6-11.83A18.92,18.92,0,0,0,172.14,45.1ZM171,76.57a11.81,11.81,0,0,1-9.73,4.34q-6.3,0-9.82-4.29t-3.52-12q0-7.58,3.61-11.92a12,12,0,0,1,9.73-4.34A11.81,11.81,0,0,1,171,52.73q3.52,4.34,3.52,11.92T171,76.57Z"/><path class="cls-1" d="M218.09,45.1a21,21,0,0,0-10.87-2.74A21.29,21.29,0,0,0,196.3,45.1,18.78,18.78,0,0,0,189,52.82a25.28,25.28,0,0,0-2.6,11.83A25.61,25.61,0,0,0,189,76.44a18.34,18.34,0,0,0,7.26,7.76,21.47,21.47,0,0,0,11,2.74,21.24,21.24,0,0,0,11-2.74,18.48,18.48,0,0,0,7.21-7.76A25.61,25.61,0,0,0,228,64.65a25.28,25.28,0,0,0-2.6-11.83A18.88,18.88,0,0,0,218.09,45.1ZM217,76.57a11.81,11.81,0,0,1-9.73,4.34q-6.3,0-9.82-4.29t-3.52-12q0-7.58,3.61-11.92a12,12,0,0,1,9.73-4.34A11.81,11.81,0,0,1,217,52.73q3.53,4.34,3.52,11.92T217,76.57Z"/><path class="cls-1" d="M287.94,43.91a23.67,23.67,0,0,0-17.31.18,22.14,22.14,0,0,0-5.27,3.27,11.68,11.68,0,0,0-5.05-3.59,22.28,22.28,0,0,0-8.23-1.41,26.38,26.38,0,0,0-7.63,1.14,25.94,25.94,0,0,0-6.26,2.69,8.18,8.18,0,0,0-2.69,2.47,5.88,5.88,0,0,0-.78,3.11V82.92a3,3,0,0,0,1,2.52,4.75,4.75,0,0,0,2.92.77,8.42,8.42,0,0,0,2-.22,10.74,10.74,0,0,0,1.37-.42V51.4a20.58,20.58,0,0,1,4.48-2.1,16.67,16.67,0,0,1,5.48-.91,10.68,10.68,0,0,1,6.9,2.1c1.74,1.4,2.6,3.59,2.6,6.58V82.92a3.06,3.06,0,0,0,1,2.52,4.73,4.73,0,0,0,3,.77,8.62,8.62,0,0,0,2-.22,10.27,10.27,0,0,0,1.41-.42v-29a15.33,15.33,0,0,0-.45-3.84l0-.1a16.6,16.6,0,0,1,4.37-2.87,15,15,0,0,1,6.16-1.32,10.49,10.49,0,0,1,6.86,2.1q2.55,2.1,2.55,6.58V82.92a3.06,3.06,0,0,0,1,2.52,4.73,4.73,0,0,0,3,.77,8.62,8.62,0,0,0,2-.22,10.27,10.27,0,0,0,1.41-.42V56.7a14.84,14.84,0,0,0-2-8A12.13,12.13,0,0,0,287.94,43.91Z"/><path class="cls-1" d="M341.44,30.3H311.11a6.21,6.21,0,0,0-4.53,1.64,6,6,0,0,0-1.69,4.48V81a5,5,0,0,0,1.51,4.06q1.5,1.23,4.8,1.23a20.8,20.8,0,0,0,3.06-.22c1-.16,1.75-.29,2.24-.41V63.92h18.91a3.9,3.9,0,0,0,3.11-1.28A5.45,5.45,0,0,0,339.61,59a7.85,7.85,0,0,0-.41-2.56,9.2,9.2,0,0,0-.87-1.92H316.4V39.71h22.12a3.88,3.88,0,0,0,3.1-1.28,5.46,5.46,0,0,0,1.1-3.66,8.28,8.28,0,0,0-.41-2.6A7.5,7.5,0,0,0,341.44,30.3Z"/><path class="cls-1" d="M351.85,42.17a19.62,19.62,0,0,0-3.06.23,11.64,11.64,0,0,0-2.14.51V81.1c0,2,.51,3.3,1.55,4.06a7.87,7.87,0,0,0,4.66,1.14,18.78,18.78,0,0,0,3-.22,11.93,11.93,0,0,0,2.1-.51V47.47c0-2-.49-3.39-1.47-4.15A7.57,7.57,0,0,0,351.85,42.17Z"/><path class="cls-1" d="M352.31,23.35a6.43,6.43,0,0,0-4.7,1.83,6.22,6.22,0,0,0,0,8.91,6.34,6.34,0,0,0,4.7,1.87A6.37,6.37,0,0,0,357,25.18,6.28,6.28,0,0,0,352.31,23.35Z"/><path class="cls-1" d="M400.32,45.37q-5.16-4.11-14.39-4.11a35.23,35.23,0,0,0-9.63,1.23,25.7,25.7,0,0,0-7.09,3.06,9.08,9.08,0,0,0-2.74,2.61,6.53,6.53,0,0,0-.91,3.61V81.1c0,2,.5,3.3,1.51,4.06a7.61,7.61,0,0,0,4.61,1.14,18.78,18.78,0,0,0,3-.22,11.93,11.93,0,0,0,2.1-.51V52.5a22.94,22.94,0,0,1,4-1.6,17.18,17.18,0,0,1,5.07-.69A9.34,9.34,0,0,1,392,52.09q2.3,1.88,2.29,5.89V81.1c0,2,.5,3.3,1.51,4.06a7.8,7.8,0,0,0,4.7,1.14,18.85,18.85,0,0,0,3-.22,9.63,9.63,0,0,0,2.06-.51v-28C405.49,52.17,403.76,48.11,400.32,45.37Z"/><path class="cls-2" d="M73.34,96.58a5.49,5.49,0,0,1-7.74.57L43.05,77.66A10.91,10.91,0,0,1,42.17,62a10.39,10.39,0,0,1,8-3.38A17.94,17.94,0,0,0,68.05,40.39a18.19,18.19,0,0,0-18.33-17.6H16.07a5.49,5.49,0,0,1-5.49-5.49h0a5.48,5.48,0,0,1,5.49-5.48H49.56C65.65,11.82,79.22,25,79,41.07A28.93,28.93,0,0,1,50.48,69.59L72.77,88.85a5.48,5.48,0,0,1,.57,7.73Z"/><path class="cls-2" d="M16.07,98.48h0A5.48,5.48,0,0,1,10.58,93V59.65A25.22,25.22,0,0,1,35.8,34.44H50a5.48,5.48,0,0,1,5.48,5.48h0A5.48,5.48,0,0,1,50,45.41H35.8A14.24,14.24,0,0,0,21.55,59.65V93A5.48,5.48,0,0,1,16.07,98.48Z"/></svg>