<svg id="Layer_1" data-name="Layer 1" xmlns="http://www.w3.org/2000/svg" viewBox="0 0 416.07 294.89"><defs><style>.cls-1{fill:#383c3b;}.cls-2{fill:#fff;}.cls-3{fill:#f1ba43;}</style></defs><rect class="cls-1" width="416.07" height="294.89"/><path class="cls-2" d="M52.05,269.29q-3.3-4.26-6.85-8.74l-2.66-3.37a28,28,0,0,0,4.2-1.47,20.81,20.81,0,0,0,9.45-8,22.86,22.86,0,0,0,3.18-12.17q0-10.86-7.32-16.88t-22.08-6q-4.72,0-9.74.47a42.41,42.41,0,0,0-8.44,1.54,6.94,6.94,0,0,0-2.9,1.59,3.9,3.9,0,0,0-1,2.89v62.82a4,4,0,0,0,1.3,3.31,6,6,0,0,0,3.9,1.06,10.46,10.46,0,0,0,2.59-.3c.79-.19,1.42-.37,1.89-.53V258.54H31c.82,0,1.62,0,2.4-.05l17.21,24.14a14.79,14.79,0,0,0,2.71,2.89,5.26,5.26,0,0,0,3.31,1,5.39,5.39,0,0,0,3.24-1.19A5.27,5.27,0,0,0,62,282.16q-1.41-1.89-4-5.26C56.22,274.66,54.26,272.12,52.05,269.29ZM17.46,250.51V221.7q2.47-.47,5.72-.77c2.17-.19,4.31-.29,6.44-.29q9.68,0,14.88,3.78t5.19,11.09c0,5-1.65,8.7-5,11.22s-7.87,3.78-13.7,3.78Z"/><path class="cls-2" d="M106.6,233.15a27.18,27.18,0,0,0-14-3.54,27.56,27.56,0,0,0-14.11,3.54,24.31,24.31,0,0,0-9.44,10,32.51,32.51,0,0,0-3.37,15.29,33,33,0,0,0,3.31,15.23,23.8,23.8,0,0,0,9.39,10,27.74,27.74,0,0,0,14.22,3.54,27.42,27.42,0,0,0,14.17-3.54,23.91,23.91,0,0,0,9.33-10,33.16,33.16,0,0,0,3.31-15.23A32.51,32.51,0,0,0,116,243.13,24.39,24.39,0,0,0,106.6,233.15Zm-1.47,40.68q-4.55,5.61-12.58,5.61t-12.69-5.55q-4.55-5.55-4.55-15.47T80,243a15.52,15.52,0,0,1,12.57-5.6q8,0,12.58,5.6t4.55,15.41Q109.68,268.23,105.13,273.83Z"/><path class="cls-2" d="M166,233.15A27.23,27.23,0,0,0,152,229.61a27.51,27.51,0,0,0-14.11,3.54,24.27,24.27,0,0,0-9.45,10A32.64,32.64,0,0,0,125,258.42a33.16,33.16,0,0,0,3.31,15.23,23.8,23.8,0,0,0,9.39,10A27.77,27.77,0,0,0,152,287.23a27.47,27.47,0,0,0,14.17-3.54,24,24,0,0,0,9.32-10,33,33,0,0,0,3.31-15.23,32.64,32.64,0,0,0-3.36-15.29A24.52,24.52,0,0,0,166,233.15Zm-1.48,40.68Q160,279.44,152,279.44t-12.7-5.55q-4.55-5.55-4.54-15.47T139.37,243a15.53,15.53,0,0,1,12.58-5.6q8,0,12.57,5.6t4.55,15.41Q169.07,268.23,164.52,273.83Z"/><path class="cls-2" d="M256.27,231.62a27.76,27.76,0,0,0-11-2,27.2,27.2,0,0,0-11.34,2.25,28.54,28.54,0,0,0-6.81,4.22,15,15,0,0,0-6.53-4.64,28.63,28.63,0,0,0-10.63-1.83,33.87,33.87,0,0,0-9.86,1.48,33,33,0,0,0-8.08,3.48,10.37,10.37,0,0,0-3.49,3.19,7.58,7.58,0,0,0-1,4V282a3.85,3.85,0,0,0,1.3,3.25,6.13,6.13,0,0,0,3.78,1,10.46,10.46,0,0,0,2.59-.3,13.61,13.61,0,0,0,1.78-.53V241.3a26.64,26.64,0,0,1,5.78-2.72,21.74,21.74,0,0,1,7.09-1.17,13.77,13.77,0,0,1,8.91,2.71c2.24,1.81,3.37,4.65,3.37,8.5V282a3.94,3.94,0,0,0,1.24,3.25,6.07,6.07,0,0,0,3.83,1,10.7,10.7,0,0,0,2.54-.3,12.58,12.58,0,0,0,1.83-.53V247.91a19.67,19.67,0,0,0-.59-5,.93.93,0,0,0,0-.13,21.61,21.61,0,0,1,5.65-3.7,19.37,19.37,0,0,1,8-1.71q5.55,0,8.86,2.71c2.2,1.81,3.3,4.65,3.3,8.5V282a4,4,0,0,0,1.24,3.25,6.12,6.12,0,0,0,3.84,1,10.76,10.76,0,0,0,2.54-.3,13,13,0,0,0,1.83-.53V248.15a19.22,19.22,0,0,0-2.6-10.39A15.62,15.62,0,0,0,256.27,231.62Z"/><path class="cls-2" d="M325.4,214H286.2a8,8,0,0,0-5.84,2.12,7.7,7.7,0,0,0-2.19,5.79v57.62q0,3.66,1.95,5.25t6.2,1.6a26,26,0,0,0,4-.3c1.29-.19,2.26-.37,2.89-.53v-28.1h24.44a5,5,0,0,0,4-1.65A7.1,7.1,0,0,0,323,251.1a9.84,9.84,0,0,0-.53-3.3,12.2,12.2,0,0,0-1.12-2.48H293.05V226.19h28.58a5,5,0,0,0,4-1.66,7,7,0,0,0,1.42-4.72,10.65,10.65,0,0,0-.53-3.36A9.18,9.18,0,0,0,325.4,214Z"/><path class="cls-2" d="M338.86,229.38a24.52,24.52,0,0,0-3.95.29,15.37,15.37,0,0,0-2.78.65v49.36q0,3.78,2,5.25t6,1.48a23.41,23.41,0,0,0,3.9-.3,14.52,14.52,0,0,0,2.72-.65V236.22q0-3.89-1.89-5.37T338.86,229.38Z"/><path class="cls-2" d="M339.46,205.05a8.39,8.39,0,0,0-6.09,2.36,8.06,8.06,0,0,0,0,11.52,8.28,8.28,0,0,0,6.09,2.42,8.23,8.23,0,0,0,6.08-13.94A8.14,8.14,0,0,0,339.46,205.05Z"/><path class="cls-2" d="M401.51,233.51q-6.67-5.31-18.6-5.32a45.6,45.6,0,0,0-12.46,1.6,32.6,32.6,0,0,0-9.15,4,11.63,11.63,0,0,0-3.54,3.37,8.41,8.41,0,0,0-1.18,4.66v37.91q0,3.78,1.94,5.25t6,1.48a23.37,23.37,0,0,0,3.89-.3,14.52,14.52,0,0,0,2.72-.65V242.72a29.26,29.26,0,0,1,5.14-2.07,22.33,22.33,0,0,1,6.55-.88,12.11,12.11,0,0,1,7.91,2.42q3,2.42,2.95,7.61v29.88q0,3.78,2,5.25t6.08,1.48a23.72,23.72,0,0,0,3.84-.3,11.86,11.86,0,0,0,2.66-.65V249.21Q408.18,238.83,401.51,233.51Z"/><path class="cls-3" d="M265.33,187a11,11,0,0,1-15.53,1.13l-45.29-39.12c-9-7.8-10.42-21.41-1.75-31.45,4-4.59,9.92-6.78,16-6.78a36,36,0,0,0,36-36.61c-.35-19.75-17.05-35.34-36.81-35.34H150.34a11,11,0,0,1-11-11h0a11,11,0,0,1,11-11H217.6c32.3,0,59.54,26.43,59.13,58.74a58.06,58.06,0,0,1-57.29,57.25l44.75,38.67A11,11,0,0,1,265.33,187Z"/><path class="cls-3" d="M150.34,190.85h0a11,11,0,0,1-11-11V112.89A50.62,50.62,0,0,1,190,62.27h28.45a11,11,0,0,1,11,11h0a11,11,0,0,1-11,11H190a28.6,28.6,0,0,0-28.6,28.6v67A11,11,0,0,1,150.34,190.85Z"/></svg>