<svg id="Layer_1" data-name="Layer 1" xmlns="http://www.w3.org/2000/svg" viewBox="0 0 1024 1024"><defs><style>.cls-1{fill:#f1ba43;}.cls-2{fill:#fff;}</style></defs><rect class="cls-1" x="0.37" width="1024" height="1024" rx="217.32"/><path class="cls-2" d="M731.34,829.93A42.08,42.08,0,0,1,672,834.26L498.91,684.75c-34.51-29.82-39.81-81.82-6.69-120.2,15.14-17.53,37.9-25.91,61.06-25.91,76.62,0,138.81-63,137.47-139.91-1.31-75.51-65.13-135.06-140.65-135.06H291.89a42.08,42.08,0,0,1-42.08-42.08h0a42.08,42.08,0,0,1,42.08-42.09h257c123.46,0,227.55,101,226,224.48C773.42,524,676,621.36,556,622.79L727,770.57a42.08,42.08,0,0,1,4.33,59.36Z"/><path class="cls-2" d="M291.89,844.5h0a42.08,42.08,0,0,1-42.08-42.09V546.56c0-106.86,86.62-193.48,193.48-193.48H552.05a42.08,42.08,0,0,1,42.08,42.08h0a42.09,42.09,0,0,1-42.08,42.09H443.29A109.31,109.31,0,0,0,334,546.56V802.41A42.08,42.08,0,0,1,291.89,844.5Z"/></svg>